####
#
# OBJ File Generated by Meshlab
#
####
# Object cube_lis.obj
#
# Vertices: 8
# Faces: 12
#
####
mtllib ./cube_lis.obj.mtl

vn 0.600312 -0.600312 -0.528442
v 0.587500 -0.587500 -0.525000
vn 0.579294 -0.579294 0.573443
v 0.510000 -0.510000 0.490000
vn -0.569159 -0.596087 0.566338
v -0.533333 -0.516667 0.533333
vn -0.560318 -0.545121 -0.623608
v -0.500000 -0.500000 -0.562500
vn 0.545121 0.560318 -0.623608
v 0.500000 0.500000 -0.562499
vn 0.596087 0.569159 0.566338
v 0.516666 0.533333 0.533334
vn -0.580954 0.580954 0.570074
v -0.566667 0.566667 0.566667
vn -0.581185 0.581185 -0.569603
v -0.519444 0.519444 -0.480555
# 8 vertices, 0 vertices normals


usemtl material_0
f 2//2 4//4 1//1
f 8//8 6//6 5//5
f 5//5 2//2 1//1
f 6//6 3//3 2//2
f 3//3 8//8 4//4
f 1//1 8//8 5//5
f 2//2 3//3 4//4
f 8//8 7//7 6//6
f 5//5 6//6 2//2
f 6//6 7//7 3//3
f 3//3 7//7 8//8
f 1//1 4//4 8//8
# 12 faces, 0 coords texture

# End of File
