####
#
# OBJ File Generated by Meshlab
#
####
# Object cube_dec.obj
#
# Vertices: 5
# Faces: 6
#
####
mtllib ./cube_dec.obj.mtl

vn 0.916320 -0.283159 0.283159
v 1.000000 -1.000000 1.000000
vn -0.916320 -0.283159 0.283158
v -1.000000 -1.000000 1.000000
vn 0.000000 -0.745356 -0.666667
v 0.000000 -1.000000 -1.000000
vn -0.000000 0.707107 -0.707107
v -0.000000 1.000000 -0.999999
vn -0.000000 0.666667 0.745356
v -0.000001 1.000000 1.000001
# 5 vertices, 0 vertices normals


usemtl material_0
f 4//4 1//1 3//3
f 5//5 2//2 1//1
f 2//2 4//4 3//3
f 1//1 2//2 3//3
f 4//4 5//5 1//1
f 2//2 5//5 4//4
# 6 faces, 0 coords texture

# End of File
